<svg width="114" height="51" viewBox="0 0 114 51" fill="none" xmlns="http://www.w3.org/2000/svg">
<path d="M18.63 40.1C26.5608 40.1 32.99 33.6708 32.99 25.74C32.99 17.8092 26.5608 11.38 18.63 11.38C10.6992 11.38 4.27002 17.8092 4.27002 25.74C4.27002 33.6708 10.6992 40.1 18.63 40.1Z" fill="#FCD34D"/>
<path d="M35.54 15.06C35.34 14.94 35.25 14.75 35.03 14.63C34.09 14.15 32.97 15.6 32.3 16.05C31.76 16.42 30.93 16.57 31.38 17.44C32.7 18.55 33.91 19.78 35.15 20.98C35.59 21.4 36.32 21.92 36.58 22.45C37.15 23.59 36.69 25.83 36.7 27.16C36.74 33.87 36.97 40.57 36.89 47.28C36.76 48.41 36.17 50.56 34.86 50.8C34.19 50.92 33.29 49.8 32.95 49.32C31.13 46.73 30.52 43.88 29.9 40.85C29.2 37.47 28.68 34.05 28.09 30.65C26.66 29.81 25.18 29.04 23.81 28.1C22.24 27.02 21.03 25.63 19.92 24.1L19.74 24.17C16.22 26.3 12.73 28.48 9.14003 30.51C7.88003 31.22 6.36003 32.16 5.03003 32.68C4.51003 32.89 4.04003 32.8 3.53003 32.63C3.14003 32.5 1.64003 31.75 1.47003 31.44C1.10003 30.77 0.83003 29.17 0.87003 28.39C0.95003 26.93 1.68003 26.67 2.84003 26.04C6.79003 23.91 11.04 21.98 15.11 20.05C15.21 20 15.63 19.89 15.61 19.79C15.61 19.75 15.27 19.26 15.21 19.16C14.52 17.93 13.81 16.3 13.87 14.87C13.87 14.66 13.94 14.45 13.95 14.26C14.05 12.6 13.27 10.95 12.38 9.59003C9.64003 8.07003 6.84003 6.59003 4.21003 4.86003C3.15003 4.17003 0.740029 2.62003 0.410029 1.41003C0.250029 0.820027 0.96003 0.750027 1.38003 0.740027C1.73003 0.720027 2.16003 0.770027 2.51003 0.810027C5.39003 1.11003 8.27003 1.75003 11.1 2.37003C14.77 3.18003 18.63 4.00003 22.23 5.06003C22.58 5.16003 23.89 5.52003 24.09 5.73003C24.58 6.26003 24.94 8.04003 25.18 8.80003C25.59 10.12 26.13 12.43 27.86 12.3C29.39 12.19 30.76 11.21 32.41 11.3C34.27 11.41 35.72 13.22 35.56 15.05L35.54 15.06Z" fill="#FF6B00"/>
<path d="M47.7601 34.94C47.1901 34.94 46.6601 34.85 46.1801 34.66C45.7001 34.47 45.2801 34.21 44.9301 33.87C44.5701 33.53 44.3001 33.13 44.1001 32.67C43.9001 32.21 43.8101 31.71 43.8101 31.16C43.8101 30.61 43.9101 30.1 44.1001 29.65C44.2901 29.2 44.5701 28.8 44.9301 28.45C45.2901 28.11 45.7101 27.84 46.1901 27.66C46.6701 27.47 47.2001 27.38 47.7901 27.38C48.3801 27.38 48.9601 27.48 49.4601 27.68C49.9601 27.88 50.3801 28.18 50.7201 28.57L49.8601 29.41C49.5701 29.12 49.2601 28.91 48.9301 28.78C48.6001 28.64 48.2301 28.58 47.8301 28.58C47.4301 28.58 47.0801 28.64 46.7501 28.77C46.4201 28.9 46.1401 29.07 45.9101 29.31C45.6801 29.55 45.4901 29.81 45.3501 30.13C45.2201 30.44 45.1501 30.79 45.1501 31.17C45.1501 31.55 45.2201 31.88 45.3501 32.2C45.4801 32.52 45.6701 32.79 45.9101 33.02C46.1501 33.25 46.4301 33.43 46.7501 33.56C47.0701 33.69 47.4301 33.75 47.8201 33.75C48.1801 33.75 48.5301 33.69 48.8701 33.58C49.2101 33.46 49.5301 33.27 49.8401 33L50.6101 34.02C50.2301 34.33 49.7901 34.56 49.2901 34.72C48.7901 34.88 48.2701 34.96 47.7501 34.96L47.7601 34.94ZM50.6301 34L49.3501 33.82V31.08H50.6301V34Z" fill="#1E293B"/>
<path d="M50.7801 34.83L54.0801 27.49H55.4201L58.7301 34.83H57.2901L54.4601 28.21H55.0101L52.1701 34.83H50.7701H50.7801ZM52.3001 33.13L52.6801 32.06H56.6401L57.0101 33.13H52.3101H52.3001Z" fill="#1E293B"/>
<path d="M59.11 34.83V27.49H60.47V34.83H59.11Z" fill="#1E293B"/>
<path d="M63.4201 34.83V28.64H60.9901V27.49H67.2201V28.64H64.7901V34.83H63.4301H63.4201Z" fill="#1E293B"/>
<path d="M67.7101 34.83V27.49H69.0701V34.83H67.7101ZM68.9701 31.68V30.52H72.9801V31.68H68.9701ZM72.8701 34.83V27.49H74.2201V34.83H72.8701Z" fill="#1E293B"/>
<path d="M79.5601 34.83V28.64H77.1301V27.49H83.3601V28.64H80.9301V34.83H79.5701H79.5601Z" fill="#1E293B"/>
<path d="M86.8401 34.94C86.2701 34.94 85.7501 34.85 85.2601 34.66C84.7701 34.47 84.3501 34.21 84.0001 33.86C83.6401 33.52 83.3701 33.12 83.1701 32.66C82.9701 32.2 82.8801 31.7 82.8801 31.17C82.8801 30.64 82.9801 30.12 83.1701 29.66C83.3601 29.2 83.6401 28.8 84.0001 28.46C84.3601 28.12 84.7801 27.86 85.2601 27.67C85.7401 27.48 86.2701 27.39 86.8401 27.39C87.4101 27.39 87.9301 27.48 88.4101 27.67C88.8901 27.86 89.3101 28.12 89.6601 28.46C90.0101 28.8 90.2901 29.2 90.4801 29.66C90.6801 30.12 90.7701 30.62 90.7701 31.17C90.7701 31.72 90.6701 32.22 90.4801 32.68C90.2801 33.14 90.0101 33.54 89.6601 33.88C89.3101 34.22 88.8901 34.49 88.4101 34.67C87.9301 34.86 87.4001 34.95 86.8401 34.95V34.94ZM86.8401 33.74C87.2101 33.74 87.5501 33.68 87.8601 33.55C88.1701 33.42 88.4401 33.25 88.6701 33.01C88.9001 32.78 89.0801 32.51 89.2101 32.19C89.3401 31.88 89.4001 31.53 89.4001 31.15C89.4001 30.77 89.3401 30.43 89.2101 30.11C89.0801 29.8 88.9001 29.52 88.6701 29.29C88.4401 29.06 88.1601 28.88 87.8501 28.75C87.5401 28.62 87.2001 28.56 86.8301 28.56C86.4601 28.56 86.1201 28.62 85.8001 28.75C85.4801 28.88 85.2101 29.06 84.9801 29.29C84.7501 29.52 84.5701 29.8 84.4301 30.11C84.3001 30.42 84.2301 30.77 84.2301 31.14C84.2301 31.51 84.3001 31.85 84.4301 32.17C84.5601 32.48 84.7401 32.76 84.9801 32.99C85.2101 33.22 85.4801 33.4 85.8001 33.53C86.1201 33.66 86.4601 33.72 86.8301 33.72L86.8401 33.74Z" fill="#1E293B"/>
<path d="M94.7601 34.94C93.7601 34.94 92.9701 34.66 92.4101 34.09C91.8401 33.52 91.5601 32.7 91.5601 31.62V27.49H92.9201V31.58C92.9201 32.34 93.0801 32.88 93.4101 33.23C93.7401 33.58 94.1901 33.74 94.7901 33.74C95.3901 33.74 95.8401 33.57 96.1601 33.23C96.4801 32.89 96.6401 32.34 96.6401 31.58V27.49H97.9801V31.62C97.9801 32.7 97.7001 33.52 97.1301 34.09C96.5601 34.66 95.7701 34.94 94.7601 34.94Z" fill="#1E293B"/>
<path d="M99.1301 34.83V27.49H102.14C103.12 27.49 103.89 27.72 104.44 28.19C105 28.66 105.27 29.29 105.27 30.1C105.27 30.64 105.14 31.1 104.89 31.48C104.64 31.86 104.28 32.16 103.81 32.37C103.34 32.58 102.79 32.68 102.14 32.68H99.8801L100.48 32.07V34.82H99.1201L99.1301 34.83ZM100.5 32.23L99.9001 31.57H102.09C102.69 31.57 103.14 31.44 103.45 31.18C103.76 30.92 103.91 30.56 103.91 30.1C103.91 29.64 103.76 29.28 103.45 29.02C103.14 28.76 102.69 28.64 102.09 28.64H99.9001L100.5 27.97V32.23ZM103.94 34.83L102.08 32.17H103.54L105.41 34.83H103.94Z" fill="#1E293B"/>
<path d="M108.48 34.94C107.91 34.94 107.36 34.86 106.84 34.69C106.32 34.52 105.9 34.31 105.59 34.06L106.06 33C106.35 33.23 106.72 33.42 107.15 33.58C107.58 33.74 108.03 33.81 108.48 33.81C108.86 33.81 109.18 33.77 109.41 33.68C109.65 33.6 109.82 33.48 109.93 33.34C110.04 33.2 110.1 33.03 110.1 32.85C110.1 32.63 110.02 32.45 109.86 32.31C109.7 32.17 109.49 32.07 109.24 31.98C108.98 31.9 108.7 31.83 108.39 31.76C108.08 31.69 107.77 31.61 107.46 31.51C107.15 31.41 106.86 31.29 106.61 31.14C106.35 30.99 106.14 30.79 105.99 30.54C105.83 30.29 105.75 29.97 105.75 29.58C105.75 29.19 105.86 28.82 106.07 28.48C106.28 28.15 106.61 27.88 107.05 27.68C107.49 27.48 108.04 27.38 108.71 27.38C109.15 27.38 109.59 27.44 110.02 27.55C110.45 27.66 110.83 27.82 111.15 28.03L110.72 29.09C110.39 28.89 110.05 28.75 109.7 28.65C109.35 28.56 109.01 28.51 108.69 28.51C108.32 28.51 108.02 28.56 107.78 28.65C107.54 28.74 107.37 28.86 107.26 29.01C107.15 29.16 107.1 29.33 107.1 29.51C107.1 29.73 107.18 29.91 107.34 30.05C107.5 30.19 107.7 30.29 107.96 30.37C108.21 30.45 108.5 30.52 108.81 30.59C109.12 30.66 109.44 30.74 109.74 30.84C110.05 30.93 110.33 31.06 110.59 31.21C110.85 31.36 111.06 31.56 111.21 31.81C111.36 32.06 111.45 32.37 111.45 32.76C111.45 33.15 111.34 33.51 111.13 33.85C110.92 34.19 110.59 34.45 110.15 34.65C109.71 34.85 109.15 34.95 108.48 34.95V34.94Z" fill="#1E293B"/>
<path d="M45.7649 14.6108C45.3069 14.6108 44.9606 14.2533 44.9606 13.773C44.9606 13.2815 45.3069 12.9353 45.7649 12.9353C46.234 12.9353 46.5803 13.2815 46.5803 13.773C46.5803 14.2533 46.234 14.6108 45.7649 14.6108ZM43.9888 23.5468L43.7766 22.1952C44.6702 22.2399 45.0388 21.8824 45.0388 20.9106V15.482H46.5021V20.9106C46.5021 22.5415 45.5526 23.5133 43.9888 23.5468ZM47.0431 23.5468L46.8309 22.1952C47.7245 22.2399 48.0931 21.8824 48.0931 20.9106V15.482H49.5564V20.9106C49.5564 22.5415 48.6069 23.5133 47.0431 23.5468ZM57.6792 19.6484C57.8356 19.6484 57.9026 19.9053 57.9026 20.3186C57.9026 20.7319 57.8356 21 57.6792 21H56.4505C56.417 22.6085 55.4117 23.5468 53.8368 23.5579L53.6245 22.184C54.5516 22.2622 54.9649 21.9383 54.9873 21H53.8032C52.0831 21 50.6645 19.749 50.6645 18.107C50.6645 16.465 52.0831 15.1804 53.8032 15.1804C54.6298 15.1804 55.6128 15.5044 56.3388 16.0182L56.4505 16.0629V19.6484H57.6792ZM52.1277 18.107C52.1277 18.9782 52.8315 19.6484 53.8256 19.6484H54.9873V16.8224C54.6187 16.6437 54.2277 16.532 53.8256 16.532C52.8315 16.532 52.1277 17.2357 52.1277 18.107ZM59.7342 19.6484C59.8905 19.6484 59.9576 19.9053 59.9576 20.3186C59.9576 20.7319 59.8905 21 59.7342 21H57.6789C57.5225 21 57.4555 20.7319 57.4555 20.3186C57.4555 19.9053 57.5225 19.6484 57.6789 19.6484H59.7342ZM61.7849 19.6484C61.9413 19.6484 62.0083 19.9053 62.0083 20.3186C62.0083 20.7319 61.9413 21 61.7849 21H59.7296C59.5732 21 59.5062 20.7319 59.5062 20.3186C59.5062 19.9053 59.5732 19.6484 59.7296 19.6484H61.7849ZM63.8357 19.6484C63.992 19.6484 64.0591 19.9053 64.0591 20.3186C64.0591 20.7319 63.992 21 63.8357 21H61.7804C61.624 21 61.557 20.7319 61.557 20.3186C61.557 19.9053 61.624 19.6484 61.7804 19.6484H63.8357ZM65.8864 19.6484C66.0428 19.6484 66.1098 19.9053 66.1098 20.3186C66.1098 20.7319 66.0428 21 65.8864 21H63.8311C63.6747 21 63.6077 20.7319 63.6077 20.3186C63.6077 19.9053 63.6747 19.6484 63.8311 19.6484H65.8864ZM67.9371 19.6484C68.0935 19.6484 68.1605 19.9053 68.1605 20.3186C68.1605 20.7319 68.0935 21 67.9371 21H65.8819C65.7255 21 65.6585 20.7319 65.6585 20.3186C65.6585 19.9053 65.7255 19.6484 65.8819 19.6484H67.9371ZM68.9491 14.6889C68.5469 14.6889 68.2454 14.3762 68.2454 13.9517C68.2454 13.5161 68.5469 13.2033 68.9491 13.2033C69.3735 13.2033 69.6751 13.5161 69.6751 13.9517C69.6751 14.3762 69.3735 14.6889 68.9491 14.6889ZM70.7474 13.2033C71.1719 13.2033 71.4735 13.5161 71.4735 13.9517C71.4735 14.3762 71.1719 14.6889 70.7474 14.6889C70.3453 14.6889 70.0437 14.3762 70.0437 13.9517C70.0437 13.5161 70.3453 13.2033 70.7474 13.2033ZM69.1166 19.6484V15.482H70.5799V21H67.9326C67.7762 21 67.7092 20.7319 67.7092 20.3186C67.7092 19.9053 67.7762 19.6484 67.9326 19.6484H69.1166ZM79.5295 13.1028C79.1386 13.1028 78.8705 12.8236 78.8705 12.4214C78.8705 12.0305 79.1386 11.7289 79.5295 11.7289C79.9205 11.7289 80.1885 12.0305 80.1885 12.4214C80.1885 12.8236 79.9205 13.1028 79.5295 13.1028ZM78.6359 14.7448C78.2338 14.7448 77.9322 14.432 77.9322 13.9964C77.9322 13.5719 78.2338 13.2592 78.6359 13.2592C79.0604 13.2592 79.362 13.5719 79.362 13.9964C79.362 14.432 79.0604 14.7448 78.6359 14.7448ZM79.7306 13.9964C79.7306 13.5719 80.0322 13.2592 80.4343 13.2592C80.8587 13.2592 81.1603 13.5719 81.1603 13.9964C81.1603 14.432 80.8587 14.7448 80.4343 14.7448C80.0322 14.7448 79.7306 14.432 79.7306 13.9964ZM85.3491 19.6484C85.5055 19.6484 85.5725 19.9053 85.5725 20.3186C85.5725 20.7319 85.5055 21 85.3491 21H84.7794C84.1204 21 83.5842 20.8213 83.1709 20.4862C82.7911 20.8213 82.2438 21 81.5066 21H77.4072C75.8099 21 74.9051 20.017 74.9051 18.4532C74.9051 17.4033 75.3184 16.6325 76.0445 16.0182L77.195 16.8336C76.6141 17.3586 76.3684 17.8724 76.3684 18.4421C76.3684 19.1681 76.7817 19.6484 77.5524 19.6484H81.3614C82.1321 19.6484 82.3555 19.3468 82.3555 18.6208V15.482H83.8188V18.632C83.8188 18.9447 83.7853 19.224 83.7294 19.4809C83.9081 19.5926 84.1427 19.6484 84.4108 19.6484H85.3491ZM87.4083 19.6484C87.5647 19.6484 87.6317 19.9053 87.6317 20.3186C87.6317 20.7319 87.5647 21 87.4083 21H85.353C85.1966 21 85.1296 20.7319 85.1296 20.3186C85.1296 19.9053 85.1966 19.6484 85.353 19.6484H87.4083ZM89.459 19.6484C89.6154 19.6484 89.6824 19.9053 89.6824 20.3186C89.6824 20.7319 89.6154 21 89.459 21H87.4037C87.2474 21 87.1803 20.7319 87.1803 20.3186C87.1803 19.9053 87.2474 19.6484 87.4037 19.6484H89.459ZM91.5098 19.6484C91.6661 19.6484 91.7332 19.9053 91.7332 20.3186C91.7332 20.7319 91.6661 21 91.5098 21H89.4545C89.2981 21 89.2311 20.7319 89.2311 20.3186C89.2311 19.9053 89.2981 19.6484 89.4545 19.6484H91.5098ZM93.5605 19.6484C93.7169 19.6484 93.7839 19.9053 93.7839 20.3186C93.7839 20.7319 93.7169 21 93.5605 21H91.5052C91.3488 21 91.2818 20.7319 91.2818 20.3186C91.2818 19.9053 91.3488 19.6484 91.5052 19.6484H93.5605ZM95.6112 19.6484C95.7676 19.6484 95.8346 19.9053 95.8346 20.3186C95.8346 20.7319 95.7676 21 95.6112 21H93.556C93.3996 21 93.3326 20.7319 93.3326 20.3186C93.3326 19.9053 93.3996 19.6484 93.556 19.6484H95.6112ZM97.662 19.6484C97.8184 19.6484 97.8854 19.9053 97.8854 20.3186C97.8854 20.7319 97.8184 21 97.662 21H95.6067C95.4503 21 95.3833 20.7319 95.3833 20.3186C95.3833 19.9053 95.4503 19.6484 95.6067 19.6484H97.662ZM99.7127 19.6484C99.8691 19.6484 99.9361 19.9053 99.9361 20.3186C99.9361 20.7319 99.8691 21 99.7127 21H97.6575C97.5011 21 97.4341 20.7319 97.4341 20.3186C97.4341 19.9053 97.5011 19.6484 97.6575 19.6484H99.7127ZM101.763 19.6484C101.92 19.6484 101.987 19.9053 101.987 20.3186C101.987 20.7319 101.92 21 101.763 21H99.7082C99.5518 21 99.4848 20.7319 99.4848 20.3186C99.4848 19.9053 99.5518 19.6484 99.7082 19.6484H101.763ZM106.249 19.6484C106.406 19.6484 106.473 19.9053 106.473 20.3186C106.473 20.7319 106.406 21 106.249 21H105.646C104.987 21 104.462 20.8213 104.06 20.4862C103.691 20.8324 103.144 21 102.407 21H101.759C101.603 21 101.536 20.7319 101.536 20.3186C101.536 19.9053 101.603 19.6484 101.759 19.6484H102.262C103.032 19.6484 103.256 19.3468 103.256 18.6208V15.482H104.708V18.632C104.708 18.9447 104.674 19.224 104.618 19.4697C104.808 19.5926 105.032 19.6484 105.311 19.6484H106.249ZM103.088 21.8601C103.513 21.8601 103.814 22.1729 103.814 22.6085C103.814 23.0329 103.513 23.3457 103.088 23.3457C102.686 23.3457 102.384 23.0329 102.384 22.6085C102.384 22.1729 102.686 21.8601 103.088 21.8601ZM104.887 21.8601C105.311 21.8601 105.613 22.1729 105.613 22.6085C105.613 23.0329 105.311 23.3457 104.887 23.3457C104.484 23.3457 104.183 23.0329 104.183 22.6085C104.183 22.1729 104.484 21.8601 104.887 21.8601ZM109.872 14.2421C109.414 14.2421 109.068 13.8847 109.068 13.4044C109.068 12.9129 109.414 12.5666 109.872 12.5666C110.341 12.5666 110.688 12.9129 110.688 13.4044C110.688 13.8847 110.341 14.2421 109.872 14.2421ZM109.76 19.6484H112.743V21H106.253C106.097 21 106.03 20.7319 106.03 20.3186C106.03 19.9053 106.097 19.6484 106.253 19.6484H107.515C107.247 19.224 107.102 18.7213 107.102 18.1628C107.102 16.4538 108.498 15.1804 110.241 15.1804C111.067 15.1804 111.905 15.4597 112.575 15.7836L111.916 16.9788C111.201 16.666 110.688 16.532 110.263 16.532C109.269 16.532 108.565 17.2134 108.565 18.1516C108.565 18.9 109.023 19.4809 109.76 19.6484Z" fill="#1E293B"/>
</svg>
