<svg width="217" height="96" viewBox="0 0 217 96" fill="none" xmlns="http://www.w3.org/2000/svg">
<path d="M34.7069 74.8909C49.7953 74.8909 62.0268 62.6594 62.0268 47.571C62.0268 32.4827 49.7953 20.2512 34.7069 20.2512C19.6186 20.2512 7.38708 32.4827 7.38708 47.571C7.38708 62.6594 19.6186 74.8909 34.7069 74.8909Z" fill="#FCD34D"/>
<path d="M66.8786 27.2524C66.4981 27.0241 66.3269 26.6626 65.9083 26.4343C64.12 25.5211 61.9892 28.2798 60.7145 29.1359C59.6872 29.8398 58.1081 30.1252 58.9642 31.7804C61.4755 33.8921 63.7775 36.2322 66.1366 38.5152C66.9737 39.3142 68.3625 40.3035 68.8572 41.3119C69.9416 43.4807 69.0665 47.7423 69.0855 50.2726C69.1616 63.0384 69.5992 75.7851 69.447 88.5509C69.1996 90.7007 68.0772 94.7911 65.5849 95.2477C64.3102 95.476 62.598 93.3451 61.9511 92.432C58.4886 87.5045 57.3281 82.0824 56.1485 76.3178C54.8168 69.8874 53.8275 63.3808 52.705 56.9123C49.9844 55.3142 47.1687 53.8493 44.5623 52.061C41.5754 50.0063 39.2734 47.3618 37.1616 44.451L36.8191 44.5842C30.1224 48.6365 23.4826 52.7839 16.6527 56.646C14.2555 57.9968 11.3637 59.7851 8.83342 60.7744C7.84412 61.1739 6.94994 61.0027 5.97967 60.6793C5.2377 60.432 2.38396 59.0051 2.06053 58.4153C1.35661 57.1406 0.842933 54.0966 0.919033 52.6127C1.07123 49.835 2.46005 49.3404 4.66695 48.1418C12.1818 44.0895 20.2674 40.4177 28.0106 36.7459C28.2008 36.6507 28.9999 36.4415 28.9618 36.2512C28.9618 36.1751 28.315 35.2429 28.2008 35.0527C26.8881 32.7126 25.5373 29.6115 25.6515 26.8909C25.6515 26.4914 25.7847 26.0919 25.8037 25.7304C25.9939 22.5723 24.51 19.4332 22.8168 16.8458C17.6039 13.954 12.2769 11.1383 7.27337 7.84695C5.25672 6.53423 0.671706 3.58536 0.0438824 1.28334C-0.260517 0.160863 1.09026 0.0276876 1.88931 0.00866268C2.55518 -0.0293873 3.37325 0.065737 4.03912 0.141837C9.51831 0.712586 14.9975 1.93019 20.3816 3.10973C27.3637 4.65076 34.7074 6.2108 41.5564 8.22745C42.2222 8.4177 44.7145 9.1026 45.095 9.50212C46.0272 10.5104 46.7121 13.8969 47.1687 15.3428C47.9487 17.8541 48.9761 22.2488 52.2674 22.0015C55.1782 21.7922 57.7847 19.9278 60.9238 20.099C64.4624 20.3083 67.221 23.7518 66.9166 27.2334L66.8786 27.2524Z" fill="#FF6B00"/>
<path d="M90.1289 65.074C89.0445 65.074 88.0361 64.9027 87.1229 64.5413C86.2097 64.1798 85.4107 63.6851 84.7448 63.0383C84.0599 62.3914 83.5462 61.6304 83.1657 60.7553C82.7852 59.8801 82.614 58.9289 82.614 57.8825C82.614 56.8362 82.8043 55.8659 83.1657 55.0098C83.5272 54.1536 84.0599 53.3926 84.7448 52.7268C85.4297 52.0799 86.2288 51.5662 87.142 51.2238C88.0552 50.8623 89.0635 50.6911 90.186 50.6911C91.3084 50.6911 92.4119 50.8813 93.3631 51.2618C94.3144 51.6423 95.1134 52.2131 95.7603 52.9551L94.1241 54.5532C93.5724 54.0014 92.9826 53.6019 92.3548 53.3546C91.727 53.0882 91.0231 52.9741 90.2621 52.9741C89.5011 52.9741 88.8352 53.0882 88.2074 53.3356C87.5795 53.5829 87.0468 53.9063 86.6093 54.3629C86.1717 54.8195 85.8102 55.3142 85.5439 55.923C85.2965 56.5127 85.1634 57.1786 85.1634 57.9016C85.1634 58.6245 85.2965 59.2523 85.5439 59.8611C85.7912 60.4699 86.1527 60.9836 86.6093 61.4212C87.0659 61.8587 87.5986 62.2012 88.2074 62.4485C88.8162 62.6958 89.5011 62.81 90.243 62.81C90.9279 62.81 91.5938 62.6958 92.2407 62.4866C92.8875 62.2583 93.4963 61.8968 94.0861 61.3831L95.551 63.3237C94.828 63.9134 93.991 64.351 93.0397 64.6554C92.0885 64.9598 91.0992 65.112 90.1099 65.112L90.1289 65.074ZM95.589 63.2856L93.1538 62.9432V57.7303H95.589V63.2856Z" fill="white"/>
<path d="M95.8762 64.8651L102.154 50.9008H104.704L111.001 64.8651H108.261L102.877 52.2706H103.924L98.5207 64.8651H95.8572H95.8762ZM98.768 61.6309L99.491 59.5952H107.025L107.729 61.6309H98.787H98.768Z" fill="white"/>
<path d="M111.724 64.8651V50.9008H114.311V64.8651H111.724Z" fill="white"/>
<path d="M119.921 64.8651V53.0887H115.298V50.9008H127.151V53.0887H122.528V64.8651H119.94H119.921Z" fill="white"/>
<path d="M128.084 64.8651V50.9008H130.672V64.8651H128.084ZM130.482 58.8723V56.6654H138.111V58.8723H130.482ZM137.901 64.8651V50.9008H140.47V64.8651H137.901Z" fill="white"/>
<path d="M150.629 64.8651V53.0887H146.006V50.9008H157.858V53.0887H153.235V64.8651H150.648H150.629Z" fill="white"/>
<path d="M164.479 65.0733C163.395 65.0733 162.405 64.9021 161.473 64.5406C160.541 64.1791 159.742 63.6845 159.076 63.0186C158.391 62.3717 157.877 61.6107 157.497 60.7356C157.116 59.8604 156.945 58.9092 156.945 57.9009C156.945 56.8925 157.135 55.9033 157.497 55.0281C157.858 54.153 158.391 53.392 159.076 52.7451C159.761 52.0983 160.56 51.6036 161.473 51.2421C162.386 50.8807 163.395 50.7094 164.479 50.7094C165.563 50.7094 166.553 50.8807 167.466 51.2421C168.379 51.6036 169.178 52.0983 169.844 52.7451C170.51 53.392 171.043 54.153 171.404 55.0281C171.785 55.9033 171.956 56.8545 171.956 57.9009C171.956 58.9472 171.766 59.8985 171.404 60.7736C171.024 61.6488 170.51 62.4098 169.844 63.0566C169.178 63.7035 168.379 64.2172 167.466 64.5596C166.553 64.9211 165.544 65.0923 164.479 65.0923V65.0733ZM164.479 62.7903C165.183 62.7903 165.83 62.6761 166.42 62.4288C167.009 62.1815 167.523 61.8581 167.961 61.4015C168.398 60.9639 168.741 60.4502 168.988 59.8414C169.235 59.2516 169.349 58.5858 169.349 57.8628C169.349 57.1399 169.235 56.493 168.988 55.8842C168.741 55.2945 168.398 54.7618 167.961 54.3242C167.523 53.8866 166.99 53.5442 166.401 53.2968C165.811 53.0495 165.164 52.9354 164.46 52.9354C163.756 52.9354 163.109 53.0495 162.5 53.2968C161.892 53.5442 161.378 53.8866 160.94 54.3242C160.503 54.7618 160.16 55.2945 159.894 55.8842C159.647 56.474 159.514 57.1399 159.514 57.8438C159.514 58.5477 159.647 59.1946 159.894 59.8034C160.141 60.3931 160.484 60.9258 160.94 61.3634C161.378 61.801 161.892 62.1434 162.5 62.3908C163.109 62.6381 163.756 62.7522 164.46 62.7522L164.479 62.7903Z" fill="white"/>
<path d="M179.546 65.0744C177.644 65.0744 176.141 64.5417 175.075 63.4573C173.991 62.3729 173.458 60.8128 173.458 58.7581V50.9008H176.046V58.682C176.046 60.1279 176.35 61.1553 176.978 61.8211C177.606 62.487 178.462 62.7914 179.603 62.7914C180.745 62.7914 181.601 62.468 182.21 61.8211C182.819 61.1743 183.123 60.1279 183.123 58.682V50.9008H185.672V58.7581C185.672 60.8128 185.14 62.3729 184.055 63.4573C182.971 64.5417 181.468 65.0744 179.546 65.0744Z" fill="white"/>
<path d="M187.861 64.8651V50.9008H193.588C195.452 50.9008 196.917 51.3384 197.963 52.2325C199.029 53.1267 199.543 54.3253 199.543 55.8663C199.543 56.8937 199.295 57.7688 198.82 58.4918C198.344 59.2147 197.659 59.7855 196.765 60.185C195.871 60.5845 194.824 60.7748 193.588 60.7748H189.288L190.43 59.6142V64.8461H187.842L187.861 64.8651ZM190.468 59.9186L189.326 58.663H193.493C194.634 58.663 195.49 58.4157 196.08 57.921C196.67 57.4264 196.955 56.7415 196.955 55.8663C196.955 54.9912 196.67 54.3063 196.08 53.8116C195.49 53.317 194.634 53.0887 193.493 53.0887H189.326L190.468 51.814V59.9186ZM197.012 64.8651L193.474 59.8045H196.251L199.809 64.8651H197.012Z" fill="white"/>
<path d="M205.647 65.0737C204.563 65.0737 203.516 64.9215 202.527 64.5981C201.538 64.2747 200.739 63.8752 200.149 63.3995L201.043 61.3829C201.595 61.8205 202.299 62.1819 203.117 62.4863C203.935 62.7907 204.791 62.9239 205.647 62.9239C206.37 62.9239 206.979 62.8478 207.416 62.6766C207.873 62.5244 208.196 62.2961 208.406 62.0297C208.615 61.7634 208.729 61.44 208.729 61.0975C208.729 60.679 208.577 60.3365 208.273 60.0702C207.968 59.8038 207.569 59.6136 207.093 59.4423C206.598 59.2901 206.066 59.157 205.476 59.0238C204.886 58.8906 204.296 58.7384 203.707 58.5482C203.117 58.3579 202.565 58.1296 202.089 57.8442C201.595 57.5589 201.195 57.1784 200.91 56.7027C200.606 56.2271 200.453 55.6183 200.453 54.8764C200.453 54.1344 200.663 53.4304 201.062 52.7836C201.462 52.1558 202.089 51.6421 202.927 51.2616C203.764 50.8811 204.81 50.6909 206.085 50.6909C206.922 50.6909 207.759 50.805 208.577 51.0143C209.395 51.2236 210.118 51.528 210.727 51.9275L209.909 53.9441C209.281 53.5636 208.634 53.2973 207.968 53.107C207.302 52.9358 206.655 52.8407 206.047 52.8407C205.343 52.8407 204.772 52.9358 204.315 53.107C203.859 53.2783 203.535 53.5065 203.326 53.7919C203.117 54.0773 203.022 54.4007 203.022 54.7432C203.022 55.1617 203.174 55.5042 203.478 55.7705C203.783 56.0369 204.163 56.2271 204.658 56.3793C205.133 56.5315 205.685 56.6647 206.275 56.7979C206.865 56.931 207.474 57.0832 208.044 57.2735C208.634 57.4447 209.167 57.692 209.661 57.9774C210.156 58.2628 210.556 58.6433 210.841 59.1189C211.126 59.5945 211.298 60.1843 211.298 60.9263C211.298 61.6683 211.088 62.3532 210.689 63C210.289 63.6469 209.661 64.1415 208.824 64.522C207.987 64.9025 206.922 65.0928 205.647 65.0928V65.0737Z" fill="white"/>
<path d="M86.2921 26.614C85.4311 26.614 84.7801 25.942 84.7801 25.039C84.7801 24.115 85.4311 23.464 86.2921 23.464C87.1741 23.464 87.8251 24.115 87.8251 25.039C87.8251 25.942 87.1741 26.614 86.2921 26.614ZM82.9531 43.414L82.5541 40.873C84.2341 40.957 84.9271 40.285 84.9271 38.458V28.252H87.6781V38.458C87.6781 41.524 85.8931 43.351 82.9531 43.414ZM88.6953 43.414L88.2963 40.873C89.9763 40.957 90.6693 40.285 90.6693 38.458V28.252H93.4203V38.458C93.4203 41.524 91.6353 43.351 88.6953 43.414ZM108.692 36.085C108.986 36.085 109.112 36.568 109.112 37.345C109.112 38.122 108.986 38.626 108.692 38.626H106.382C106.319 41.65 104.429 43.414 101.468 43.435L101.069 40.852C102.812 40.999 103.589 40.39 103.631 38.626H101.405C98.1706 38.626 95.5036 36.274 95.5036 33.187C95.5036 30.1 98.1706 27.685 101.405 27.685C102.959 27.685 104.807 28.294 106.172 29.26L106.382 29.344V36.085H108.692ZM98.2546 33.187C98.2546 34.825 99.5776 36.085 101.447 36.085H103.631V30.772C102.938 30.436 102.203 30.226 101.447 30.226C99.5776 30.226 98.2546 31.549 98.2546 33.187ZM112.555 36.085C112.849 36.085 112.975 36.568 112.975 37.345C112.975 38.122 112.849 38.626 112.555 38.626H108.691C108.397 38.626 108.271 38.122 108.271 37.345C108.271 36.568 108.397 36.085 108.691 36.085H112.555ZM116.41 36.085C116.704 36.085 116.83 36.568 116.83 37.345C116.83 38.122 116.704 38.626 116.41 38.626H112.546C112.252 38.626 112.126 38.122 112.126 37.345C112.126 36.568 112.252 36.085 112.546 36.085H116.41ZM120.266 36.085C120.56 36.085 120.686 36.568 120.686 37.345C120.686 38.122 120.56 38.626 120.266 38.626H116.402C116.108 38.626 115.982 38.122 115.982 37.345C115.982 36.568 116.108 36.085 116.402 36.085H120.266ZM124.121 36.085C124.415 36.085 124.541 36.568 124.541 37.345C124.541 38.122 124.415 38.626 124.121 38.626H120.257C119.963 38.626 119.837 38.122 119.837 37.345C119.837 36.568 119.963 36.085 120.257 36.085H124.121ZM127.977 36.085C128.271 36.085 128.397 36.568 128.397 37.345C128.397 38.122 128.271 38.626 127.977 38.626H124.113C123.819 38.626 123.693 38.122 123.693 37.345C123.693 36.568 123.819 36.085 124.113 36.085H127.977ZM129.879 26.761C129.123 26.761 128.556 26.173 128.556 25.375C128.556 24.556 129.123 23.968 129.879 23.968C130.677 23.968 131.244 24.556 131.244 25.375C131.244 26.173 130.677 26.761 129.879 26.761ZM133.26 23.968C134.058 23.968 134.625 24.556 134.625 25.375C134.625 26.173 134.058 26.761 133.26 26.761C132.504 26.761 131.937 26.173 131.937 25.375C131.937 24.556 132.504 23.968 133.26 23.968ZM130.194 36.085V28.252H132.945V38.626H127.968C127.674 38.626 127.548 38.122 127.548 37.345C127.548 36.568 127.674 36.085 127.968 36.085H130.194ZM149.771 23.779C149.036 23.779 148.532 23.254 148.532 22.498C148.532 21.763 149.036 21.196 149.771 21.196C150.506 21.196 151.01 21.763 151.01 22.498C151.01 23.254 150.506 23.779 149.771 23.779ZM148.091 26.866C147.335 26.866 146.768 26.278 146.768 25.459C146.768 24.661 147.335 24.073 148.091 24.073C148.889 24.073 149.456 24.661 149.456 25.459C149.456 26.278 148.889 26.866 148.091 26.866ZM150.149 25.459C150.149 24.661 150.716 24.073 151.472 24.073C152.27 24.073 152.837 24.661 152.837 25.459C152.837 26.278 152.27 26.866 151.472 26.866C150.716 26.866 150.149 26.278 150.149 25.459ZM160.712 36.085C161.006 36.085 161.132 36.568 161.132 37.345C161.132 38.122 161.006 38.626 160.712 38.626H159.641C158.402 38.626 157.394 38.29 156.617 37.66C155.903 38.29 154.874 38.626 153.488 38.626H145.781C142.778 38.626 141.077 36.778 141.077 33.838C141.077 31.864 141.854 30.415 143.219 29.26L145.382 30.793C144.29 31.78 143.828 32.746 143.828 33.817C143.828 35.182 144.605 36.085 146.054 36.085H153.215C154.664 36.085 155.084 35.518 155.084 34.153V28.252H157.835V34.174C157.835 34.762 157.772 35.287 157.667 35.77C158.003 35.98 158.444 36.085 158.948 36.085H160.712ZM164.583 36.085C164.877 36.085 165.003 36.568 165.003 37.345C165.003 38.122 164.877 38.626 164.583 38.626H160.719C160.425 38.626 160.299 38.122 160.299 37.345C160.299 36.568 160.425 36.085 160.719 36.085H164.583ZM168.439 36.085C168.733 36.085 168.859 36.568 168.859 37.345C168.859 38.122 168.733 38.626 168.439 38.626H164.575C164.281 38.626 164.155 38.122 164.155 37.345C164.155 36.568 164.281 36.085 164.575 36.085H168.439ZM172.294 36.085C172.588 36.085 172.714 36.568 172.714 37.345C172.714 38.122 172.588 38.626 172.294 38.626H168.43C168.136 38.626 168.01 38.122 168.01 37.345C168.01 36.568 168.136 36.085 168.43 36.085H172.294ZM176.15 36.085C176.444 36.085 176.57 36.568 176.57 37.345C176.57 38.122 176.444 38.626 176.15 38.626H172.286C171.992 38.626 171.866 38.122 171.866 37.345C171.866 36.568 171.992 36.085 172.286 36.085H176.15ZM180.005 36.085C180.299 36.085 180.425 36.568 180.425 37.345C180.425 38.122 180.299 38.626 180.005 38.626H176.141C175.847 38.626 175.721 38.122 175.721 37.345C175.721 36.568 175.847 36.085 176.141 36.085H180.005ZM183.861 36.085C184.155 36.085 184.281 36.568 184.281 37.345C184.281 38.122 184.155 38.626 183.861 38.626H179.997C179.703 38.626 179.577 38.122 179.577 37.345C179.577 36.568 179.703 36.085 179.997 36.085H183.861ZM187.716 36.085C188.01 36.085 188.136 36.568 188.136 37.345C188.136 38.122 188.01 38.626 187.716 38.626H183.852C183.558 38.626 183.432 38.122 183.432 37.345C183.432 36.568 183.558 36.085 183.852 36.085H187.716ZM191.572 36.085C191.866 36.085 191.992 36.568 191.992 37.345C191.992 38.122 191.866 38.626 191.572 38.626H187.708C187.414 38.626 187.288 38.122 187.288 37.345C187.288 36.568 187.414 36.085 187.708 36.085H191.572ZM200.005 36.085C200.299 36.085 200.425 36.568 200.425 37.345C200.425 38.122 200.299 38.626 200.005 38.626H198.871C197.632 38.626 196.645 38.29 195.889 37.66C195.196 38.311 194.167 38.626 192.781 38.626H191.563C191.269 38.626 191.143 38.122 191.143 37.345C191.143 36.568 191.269 36.085 191.563 36.085H192.508C193.957 36.085 194.377 35.518 194.377 34.153V28.252H197.107V34.174C197.107 34.762 197.044 35.287 196.939 35.749C197.296 35.98 197.716 36.085 198.241 36.085H200.005ZM194.062 40.243C194.86 40.243 195.427 40.831 195.427 41.65C195.427 42.448 194.86 43.036 194.062 43.036C193.306 43.036 192.739 42.448 192.739 41.65C192.739 40.831 193.306 40.243 194.062 40.243ZM197.443 40.243C198.241 40.243 198.808 40.831 198.808 41.65C198.808 42.448 198.241 43.036 197.443 43.036C196.687 43.036 196.12 42.448 196.12 41.65C196.12 40.831 196.687 40.243 197.443 40.243ZM206.816 25.921C205.955 25.921 205.304 25.249 205.304 24.346C205.304 23.422 205.955 22.771 206.816 22.771C207.698 22.771 208.349 23.422 208.349 24.346C208.349 25.249 207.698 25.921 206.816 25.921ZM206.606 36.085H212.213V38.626H200.012C199.718 38.626 199.592 38.122 199.592 37.345C199.592 36.568 199.718 36.085 200.012 36.085H202.385C201.881 35.287 201.608 34.342 201.608 33.292C201.608 30.079 204.233 27.685 207.509 27.685C209.063 27.685 210.638 28.21 211.898 28.819L210.659 31.066C209.315 30.478 208.349 30.226 207.551 30.226C205.682 30.226 204.359 31.507 204.359 33.271C204.359 34.678 205.22 35.77 206.606 36.085Z" fill="white"/>
</svg>
