<svg width="203" height="90" viewBox="0 0 203 90" fill="none" xmlns="http://www.w3.org/2000/svg">
<path opacity="0.7" d="M32.7098 70.5662C46.9304 70.5662 58.4585 59.0381 58.4585 44.8175C58.4585 30.597 46.9304 19.0689 32.7098 19.0689C18.4892 19.0689 6.96118 30.597 6.96118 44.8175C6.96118 59.0381 18.4892 70.5662 32.7098 70.5662Z" fill="#FCD94D"/>
<path d="M63.0323 25.6851C62.6737 25.4699 62.5123 25.1292 62.1178 24.9141C60.4323 24.0534 58.4241 26.6533 57.2227 27.4602C56.2544 28.1237 54.7662 28.3926 55.5731 29.9526C57.9399 31.9429 60.1096 34.1484 62.333 36.3001C63.1219 37.0532 64.4309 37.9856 64.8971 38.9359C65.9192 40.9801 65.0943 44.9966 65.1123 47.3814C65.184 59.4129 65.5964 71.4266 65.4529 83.4582C65.2198 85.4843 64.1619 89.3394 61.813 89.7698C60.6116 89.9849 58.9979 87.9767 58.3882 87.116C55.1248 82.4719 54.031 77.3617 52.9193 71.9286C51.6642 65.868 50.7318 59.7357 49.6738 53.6392C47.1097 52.133 44.456 50.7523 41.9995 49.0668C39.1843 47.1303 37.0147 44.6379 35.0244 41.8945L34.7016 42.0201C28.39 45.8393 22.1321 49.7482 15.695 53.3882C13.4357 54.6613 10.7102 56.3468 8.32539 57.2792C7.39299 57.6557 6.55024 57.4943 5.63577 57.1895C4.93647 56.9564 2.24685 55.6116 1.94203 55.0557C1.27859 53.8544 0.794454 50.9855 0.866178 49.5869C1.00962 46.969 2.31857 46.5027 4.39855 45.3731C11.4812 41.5538 19.1018 38.0932 26.3996 34.6326C26.579 34.5429 27.3321 34.3457 27.2962 34.1663C27.2962 34.0946 26.6865 33.216 26.579 33.0367C25.3417 30.8312 24.0686 27.9085 24.1762 25.3444C24.1762 24.9678 24.3017 24.5913 24.3197 24.2506C24.499 21.2741 23.1004 18.3155 21.5045 15.8769C16.5915 13.1514 11.5709 10.4977 6.85506 7.39565C4.9544 6.15842 0.633075 3.37915 0.0413586 1.20953C-0.245534 0.151608 1.02756 0.0260953 1.78065 0.00816448C2.40823 -0.0276971 3.17925 0.0619564 3.80683 0.13368C8.9709 0.671604 14.135 1.81917 19.2094 2.93088C25.79 4.38328 32.7113 5.85361 39.1664 7.75427C39.794 7.93358 42.1429 8.57909 42.5015 8.95563C43.3801 9.90597 44.0256 13.0977 44.456 14.4604C45.1911 16.8273 46.1594 20.9693 49.2614 20.7362C52.0048 20.5389 54.4614 18.7817 57.4199 18.9431C60.7551 19.1403 63.355 22.3858 63.0681 25.6671L63.0323 25.6851Z" fill="white"/>
<path d="M85.2101 61.7259C84.1881 61.7259 83.2377 61.5645 82.377 61.2238C81.5164 60.8831 80.7633 60.4169 80.1357 59.8073C79.4902 59.1976 79.0061 58.4804 78.6474 57.6556C78.2888 56.8308 78.1274 55.9342 78.1274 54.948C78.1274 53.9618 78.3068 53.0474 78.6474 52.2405C78.9881 51.4336 79.4902 50.7164 80.1357 50.0888C80.7812 49.4791 81.5343 48.995 82.395 48.6722C83.2556 48.3315 84.206 48.1702 85.2639 48.1702C86.3218 48.1702 87.3618 48.3495 88.2584 48.7081C89.1549 49.0667 89.908 49.6046 90.5176 50.3039L88.9756 51.8101C88.4556 51.2901 87.8997 50.9136 87.308 50.6805C86.7163 50.4295 86.0529 50.3219 85.3356 50.3219C84.6184 50.3219 83.9908 50.4294 83.3991 50.6625C82.8074 50.8956 82.3053 51.2005 81.8929 51.6308C81.4805 52.0612 81.1398 52.5274 80.8888 53.1011C80.6557 53.657 80.5302 54.2846 80.5302 54.966C80.5302 55.6473 80.6557 56.239 80.8888 56.8128C81.1219 57.3866 81.4626 57.8707 81.8929 58.2831C82.3232 58.6955 82.8253 59.0183 83.3991 59.2514C83.9729 59.4845 84.6184 59.5921 85.3177 59.5921C85.9632 59.5921 86.5908 59.4845 87.2004 59.2873C87.8101 59.0721 88.3839 58.7314 88.9397 58.2473L90.3204 60.0762C89.639 60.6321 88.8501 61.0445 87.9535 61.3314C87.057 61.6183 86.1246 61.7617 85.1922 61.7617L85.2101 61.7259ZM90.3383 60.0583L88.0432 59.7355V54.8225H90.3383V60.0583Z" fill="white"/>
<path d="M90.6276 61.5463L96.5447 48.3851H98.9474L104.883 61.5463H102.301L97.2261 49.6761H98.2123L93.1199 61.5463H90.6096H90.6276ZM93.353 58.4981L94.0344 56.5794H101.135L101.798 58.4981H93.371H93.353Z" fill="white"/>
<path d="M105.562 61.5463V48.3851H108.001V61.5463H105.562Z" fill="white"/>
<path d="M113.289 61.5463V50.4471H108.932V48.3851H120.103V50.4471H115.746V61.5463H113.307H113.289Z" fill="white"/>
<path d="M120.983 61.5463V48.3851H123.421V61.5463H120.983ZM123.242 55.8981V53.8181H130.432V55.8981H123.242ZM130.235 61.5463V48.3851H132.656V61.5463H130.235Z" fill="white"/>
<path d="M142.231 61.5463V50.4471H137.874V48.3851H149.044V50.4471H144.687V61.5463H142.249H142.231Z" fill="white"/>
<path d="M155.284 61.7255C154.262 61.7255 153.33 61.5641 152.451 61.2234C151.573 60.8827 150.82 60.4165 150.192 59.789C149.547 59.1793 149.062 58.4621 148.704 57.6372C148.345 56.8124 148.184 55.9159 148.184 54.9656C148.184 54.0152 148.363 53.0828 148.704 52.258C149.045 51.4332 149.547 50.7159 150.192 50.1063C150.838 49.4967 151.591 49.0305 152.451 48.6898C153.312 48.3491 154.262 48.1877 155.284 48.1877C156.306 48.1877 157.239 48.3491 158.1 48.6898C158.96 49.0305 159.713 49.4967 160.341 50.1063C160.969 50.7159 161.471 51.4332 161.811 52.258C162.17 53.0828 162.331 53.9794 162.331 54.9656C162.331 55.9518 162.152 56.8483 161.811 57.6731C161.453 58.4979 160.969 59.2151 160.341 59.8248C159.713 60.4344 158.96 60.9186 158.1 61.2413C157.239 61.582 156.289 61.7434 155.284 61.7434V61.7255ZM155.284 59.5917C155.948 59.5917 156.558 59.4841 157.113 59.251C157.669 59.0179 158.153 58.7131 158.566 58.2827C158.978 57.8703 159.301 57.3862 159.534 56.8124C159.767 56.2566 159.875 55.629 159.875 54.9476C159.875 54.2662 159.767 53.6566 159.534 53.0828C159.301 52.527 158.978 52.0249 158.566 51.6125C158.153 51.2001 157.651 50.8773 157.095 50.6442C156.54 50.4111 155.93 50.3035 155.267 50.3035C154.603 50.3035 153.993 50.4111 153.42 50.6442C152.846 50.8773 152.362 51.2001 151.949 51.6125C151.537 52.0249 151.214 52.527 150.963 53.0828C150.73 53.6387 150.604 54.2663 150.604 54.9297C150.604 55.5931 150.73 56.2028 150.963 56.7766C151.196 57.3324 151.519 57.8345 151.949 58.2469C152.362 58.6593 152.846 58.9821 153.42 59.2152C153.993 59.4483 154.603 59.5558 155.267 59.5558L155.284 59.5917Z" fill="white"/>
<path d="M169.469 61.726C167.676 61.726 166.259 61.2239 165.255 60.2019C164.233 59.1798 163.731 57.7095 163.731 55.773V48.3675H166.17V55.7012C166.17 57.064 166.456 58.0322 167.048 58.6598C167.64 59.2874 168.447 59.5743 169.523 59.5743C170.598 59.5743 171.405 59.2695 171.979 58.6598C172.553 58.0502 172.84 57.064 172.84 55.7012V48.3675H175.243V55.773C175.243 57.7095 174.74 59.1798 173.718 60.2019C172.696 61.2239 171.28 61.726 169.469 61.726Z" fill="white"/>
<path d="M177.322 61.5463V48.3851H182.719C184.477 48.3851 185.857 48.7975 186.843 49.6402C187.847 50.483 188.332 51.6126 188.332 53.065C188.332 54.0333 188.099 54.8581 187.65 55.5395C187.202 56.2208 186.556 56.7588 185.714 57.1353C184.871 57.5118 183.885 57.6912 182.719 57.6912H178.667L179.743 56.5974V61.5283H177.304L177.322 61.5463ZM179.761 56.8843L178.685 55.7008H182.612C183.688 55.7008 184.494 55.4677 185.05 55.0015C185.606 54.5353 185.875 53.8898 185.875 53.065C185.875 52.2402 185.606 51.5947 185.05 51.1285C184.494 50.6623 183.688 50.4471 182.612 50.4471H178.685L179.761 49.2458V56.8843ZM185.929 61.5463L182.594 56.7767H185.212L188.565 61.5463H185.929Z" fill="white"/>
<path d="M194.084 61.7259C193.062 61.7259 192.076 61.5824 191.144 61.2776C190.211 60.9728 189.458 60.5962 188.902 60.148L189.745 58.2473C190.265 58.6597 190.929 59.0004 191.7 59.2873C192.471 59.5742 193.277 59.6997 194.084 59.6997C194.766 59.6997 195.339 59.628 195.752 59.4666C196.182 59.3231 196.487 59.108 196.684 58.8569C196.882 58.6059 196.989 58.3011 196.989 57.9783C196.989 57.5838 196.846 57.2611 196.559 57.0101C196.272 56.759 195.895 56.5797 195.447 56.4183C194.981 56.2749 194.479 56.1494 193.923 56.0239C193.367 55.8984 192.811 55.7549 192.255 55.5756C191.7 55.3963 191.18 55.1811 190.731 54.9122C190.265 54.6432 189.889 54.2846 189.62 53.8363C189.333 53.388 189.189 52.8142 189.189 52.1149C189.189 51.4156 189.386 50.7522 189.763 50.1426C190.14 49.5508 190.731 49.0667 191.52 48.7081C192.309 48.3495 193.295 48.1702 194.497 48.1702C195.286 48.1702 196.075 48.2777 196.846 48.475C197.617 48.6722 198.298 48.9591 198.872 49.3357L198.101 51.2363C197.509 50.8777 196.899 50.6267 196.272 50.4474C195.644 50.286 195.035 50.1964 194.461 50.1964C193.797 50.1964 193.26 50.286 192.829 50.4474C192.399 50.6088 192.094 50.8239 191.897 51.0929C191.7 51.3619 191.61 51.6667 191.61 51.9894C191.61 52.3839 191.753 52.7067 192.04 52.9577C192.327 53.2087 192.686 53.388 193.152 53.5315C193.6 53.6749 194.12 53.8005 194.676 53.926C195.232 54.0515 195.806 54.1949 196.344 54.3742C196.899 54.5356 197.402 54.7687 197.868 55.0377C198.334 55.3066 198.71 55.6653 198.979 56.1135C199.248 56.5618 199.41 57.1176 199.41 57.8169C199.41 58.5163 199.213 59.1618 198.836 59.7714C198.459 60.381 197.868 60.8473 197.079 61.2059C196.29 61.5645 195.286 61.7438 194.084 61.7438V61.7259Z" fill="white"/>
<path d="M80.6444 24.064C79.8244 24.064 79.2044 23.424 79.2044 22.564C79.2044 21.684 79.8244 21.064 80.6444 21.064C81.4844 21.064 82.1044 21.684 82.1044 22.564C82.1044 23.424 81.4844 24.064 80.6444 24.064ZM77.4644 40.064L77.0844 37.644C78.6844 37.724 79.3444 37.084 79.3444 35.344V25.624H81.9644V35.344C81.9644 38.264 80.2644 40.004 77.4644 40.064ZM82.9331 40.064L82.5531 37.644C84.1531 37.724 84.8131 37.084 84.8131 35.344V25.624H87.4331V35.344C87.4331 38.264 85.7331 40.004 82.9331 40.064ZM101.977 33.084C102.257 33.084 102.377 33.544 102.377 34.284C102.377 35.024 102.257 35.504 101.977 35.504H99.7772C99.7172 38.384 97.9172 40.064 95.0972 40.084L94.7172 37.624C96.3772 37.764 97.1172 37.184 97.1572 35.504H95.0372C91.9572 35.504 89.4172 33.264 89.4172 30.324C89.4172 27.384 91.9572 25.084 95.0372 25.084C96.5172 25.084 98.2772 25.664 99.5772 26.584L99.7772 26.664V33.084H101.977ZM92.0372 30.324C92.0372 31.884 93.2972 33.084 95.0772 33.084H97.1572V28.024C96.4972 27.704 95.7972 27.504 95.0772 27.504C93.2972 27.504 92.0372 28.764 92.0372 30.324ZM105.657 33.084C105.937 33.084 106.057 33.544 106.057 34.284C106.057 35.024 105.937 35.504 105.657 35.504H101.977C101.697 35.504 101.577 35.024 101.577 34.284C101.577 33.544 101.697 33.084 101.977 33.084H105.657ZM109.328 33.084C109.608 33.084 109.728 33.544 109.728 34.284C109.728 35.024 109.608 35.504 109.328 35.504H105.648C105.368 35.504 105.248 35.024 105.248 34.284C105.248 33.544 105.368 33.084 105.648 33.084H109.328ZM113 33.084C113.28 33.084 113.4 33.544 113.4 34.284C113.4 35.024 113.28 35.504 113 35.504H109.32C109.04 35.504 108.92 35.024 108.92 34.284C108.92 33.544 109.04 33.084 109.32 33.084H113ZM116.672 33.084C116.952 33.084 117.072 33.544 117.072 34.284C117.072 35.024 116.952 35.504 116.672 35.504H112.992C112.712 35.504 112.592 35.024 112.592 34.284C112.592 33.544 112.712 33.084 112.992 33.084H116.672ZM120.344 33.084C120.624 33.084 120.744 33.544 120.744 34.284C120.744 35.024 120.624 35.504 120.344 35.504H116.664C116.384 35.504 116.264 35.024 116.264 34.284C116.264 33.544 116.384 33.084 116.664 33.084H120.344ZM124.016 33.084C124.296 33.084 124.416 33.544 124.416 34.284C124.416 35.024 124.296 35.504 124.016 35.504H120.336C120.056 35.504 119.936 35.024 119.936 34.284C119.936 33.544 120.056 33.084 120.336 33.084H124.016ZM127.688 33.084C127.968 33.084 128.088 33.544 128.088 34.284C128.088 35.024 127.968 35.504 127.688 35.504H124.008C123.728 35.504 123.608 35.024 123.608 34.284C123.608 33.544 123.728 33.084 124.008 33.084H127.688ZM129.5 24.204C128.78 24.204 128.24 23.644 128.24 22.884C128.24 22.104 128.78 21.544 129.5 21.544C130.26 21.544 130.8 22.104 130.8 22.884C130.8 23.644 130.26 24.204 129.5 24.204ZM132.72 21.544C133.48 21.544 134.02 22.104 134.02 22.884C134.02 23.644 133.48 24.204 132.72 24.204C132 24.204 131.46 23.644 131.46 22.884C131.46 22.104 132 21.544 132.72 21.544ZM129.8 33.084V25.624H132.42V35.504H127.68C127.4 35.504 127.28 35.024 127.28 34.284C127.28 33.544 127.4 33.084 127.68 33.084H129.8ZM148.444 21.364C147.744 21.364 147.264 20.864 147.264 20.144C147.264 19.444 147.744 18.904 148.444 18.904C149.144 18.904 149.624 19.444 149.624 20.144C149.624 20.864 149.144 21.364 148.444 21.364ZM146.844 24.304C146.124 24.304 145.584 23.744 145.584 22.964C145.584 22.204 146.124 21.644 146.844 21.644C147.604 21.644 148.144 22.204 148.144 22.964C148.144 23.744 147.604 24.304 146.844 24.304ZM148.804 22.964C148.804 22.204 149.344 21.644 150.064 21.644C150.824 21.644 151.364 22.204 151.364 22.964C151.364 23.744 150.824 24.304 150.064 24.304C149.344 24.304 148.804 23.744 148.804 22.964ZM158.864 33.084C159.144 33.084 159.264 33.544 159.264 34.284C159.264 35.024 159.144 35.504 158.864 35.504H157.844C156.664 35.504 155.704 35.184 154.964 34.584C154.284 35.184 153.304 35.504 151.984 35.504H144.644C141.784 35.504 140.164 33.744 140.164 30.944C140.164 29.064 140.904 27.684 142.204 26.584L144.264 28.044C143.224 28.984 142.784 29.904 142.784 30.924C142.784 32.224 143.524 33.084 144.904 33.084H151.724C153.104 33.084 153.504 32.544 153.504 31.244V25.624H156.124V31.264C156.124 31.824 156.064 32.324 155.964 32.784C156.284 32.984 156.704 33.084 157.184 33.084H158.864ZM162.551 33.084C162.831 33.084 162.951 33.544 162.951 34.284C162.951 35.024 162.831 35.504 162.551 35.504H158.871C158.591 35.504 158.471 35.024 158.471 34.284C158.471 33.544 158.591 33.084 158.871 33.084H162.551ZM166.223 33.084C166.503 33.084 166.623 33.544 166.623 34.284C166.623 35.024 166.503 35.504 166.223 35.504H162.543C162.263 35.504 162.143 35.024 162.143 34.284C162.143 33.544 162.263 33.084 162.543 33.084H166.223ZM169.895 33.084C170.175 33.084 170.295 33.544 170.295 34.284C170.295 35.024 170.175 35.504 169.895 35.504H166.215C165.935 35.504 165.815 35.024 165.815 34.284C165.815 33.544 165.935 33.084 166.215 33.084H169.895ZM173.567 33.084C173.847 33.084 173.967 33.544 173.967 34.284C173.967 35.024 173.847 35.504 173.567 35.504H169.887C169.607 35.504 169.487 35.024 169.487 34.284C169.487 33.544 169.607 33.084 169.887 33.084H173.567ZM177.239 33.084C177.519 33.084 177.639 33.544 177.639 34.284C177.639 35.024 177.519 35.504 177.239 35.504H173.559C173.279 35.504 173.159 35.024 173.159 34.284C173.159 33.544 173.279 33.084 173.559 33.084H177.239ZM180.91 33.084C181.19 33.084 181.31 33.544 181.31 34.284C181.31 35.024 181.19 35.504 180.91 35.504H177.23C176.95 35.504 176.83 35.024 176.83 34.284C176.83 33.544 176.95 33.084 177.23 33.084H180.91ZM188.942 33.084C189.222 33.084 189.342 33.544 189.342 34.284C189.342 35.024 189.222 35.504 188.942 35.504H187.862C186.682 35.504 185.742 35.184 185.022 34.584C184.362 35.204 183.382 35.504 182.062 35.504H180.902C180.622 35.504 180.502 35.024 180.502 34.284C180.502 33.544 180.622 33.084 180.902 33.084H181.802C183.182 33.084 183.582 32.544 183.582 31.244V25.624H186.182V31.264C186.182 31.824 186.122 32.324 186.022 32.764C186.362 32.984 186.762 33.084 187.262 33.084H188.942ZM183.282 37.044C184.042 37.044 184.582 37.604 184.582 38.384C184.582 39.144 184.042 39.704 183.282 39.704C182.562 39.704 182.022 39.144 182.022 38.384C182.022 37.604 182.562 37.044 183.282 37.044ZM186.502 37.044C187.262 37.044 187.802 37.604 187.802 38.384C187.802 39.144 187.262 39.704 186.502 39.704C185.782 39.704 185.242 39.144 185.242 38.384C185.242 37.604 185.782 37.044 186.502 37.044ZM195.429 23.404C194.609 23.404 193.989 22.764 193.989 21.904C193.989 21.024 194.609 20.404 195.429 20.404C196.269 20.404 196.889 21.024 196.889 21.904C196.889 22.764 196.269 23.404 195.429 23.404ZM195.229 33.084H200.569V35.504H188.949C188.669 35.504 188.549 35.024 188.549 34.284C188.549 33.544 188.669 33.084 188.949 33.084H191.209C190.729 32.324 190.469 31.424 190.469 30.424C190.469 27.364 192.969 25.084 196.089 25.084C197.569 25.084 199.069 25.584 200.269 26.164L199.089 28.304C197.809 27.744 196.889 27.504 196.129 27.504C194.349 27.504 193.089 28.724 193.089 30.404C193.089 31.744 193.909 32.784 195.229 33.084Z" fill="white"/>
</svg>
